<svg width="23" height="21" viewBox="0 0 23 21" fill="none" xmlns="http://www.w3.org/2000/svg">
<path d="M22 1V19.6648M4.53383 1.33249C4.17976 1.12006 3.77566 1.00539 3.36277 1.00019C2.94989 0.994977 2.54302 1.09942 2.1837 1.30284C1.82438 1.50626 1.52548 1.80138 1.31752 2.15807C1.10957 2.51476 0.999996 2.92024 1 3.33312V17.3317C0.999996 17.7446 1.10957 18.15 1.31752 18.5067C1.52548 18.8634 1.82438 19.1585 2.1837 19.362C2.54302 19.5654 2.94989 19.6698 3.36277 19.6646C3.77566 19.6594 4.17976 19.5447 4.53383 19.3323L16.197 12.3354C16.5432 12.1285 16.8299 11.8355 17.0291 11.4848C17.2283 11.1341 17.3332 10.7378 17.3336 10.3346C17.3339 9.93128 17.2297 9.53479 17.0311 9.18378C16.8326 8.83277 16.5464 8.53922 16.2005 8.33177L4.53383 1.33249Z" stroke="white" stroke-width="2" stroke-linecap="round"/>
</svg>
